<svg height="511pt" viewBox="-8 1 511 511.999" width="511pt" xmlns="http://www.w3.org/2000/svg"><path d="m496.316406 173.382812c-8.179687-48.414062-33.335937-92.535156-70.835937-124.230468-37.5-31.699219-85.191407-49.152344-134.292969-49.152344-8.273438 0-14.980469 6.707031-14.980469 14.980469v193.054687c0 4.410156 1.941407 8.59375 5.308594 11.441406 2.726563 2.300782 6.15625 3.539063 9.671875 3.539063.832031 0 1.664062-.070313 2.496094-.210937l190.355468-32.15625c3.917969-.660157 7.414063-2.851563 9.714844-6.089844 2.300782-3.238282 3.222656-7.261719 2.5625-11.175782zm-190.148437 16.929688v-159.730469c75.628906 6.265625 138.722656 59.59375 157.5 133.121094zm0 0"/><path d="m463.136719 255.933594c-.898438-8.574219-5.371094-16.449219-12.265625-21.601563-6.871094-5.132812-15.644532-7.179687-24.078125-5.621093v.003906l-179.476563 33.234375v-182.113281c0-8.585938-3.617187-16.851563-9.921875-22.683594-6.289062-5.820313-14.796875-8.78125-23.332031-8.109375-58.011719 4.527343-111.851562 30.574219-151.59375 73.347656-39.964844 43.003906-61.96875 99.039063-61.96875 157.777344 0 61.902343 24.101562 120.109375 67.796875 163.824219.117187.117187.234375.234374.355469.351562 43.757812 43.628906 101.886718 67.65625 163.679687 67.65625.480469 0 .949219-.023438 1.417969-.066406 61.449219-.328125 119.167969-24.40625 162.660156-67.898438.339844-.339844.65625-.691406.957032-1.050781 29.410156-29.734375 50.222656-66.769531 60.214843-107.175781l.285157-1.171875c1.140624-4.71875 2.128906-9.40625 2.929687-13.914063 3.820313-21.359375 4.605469-43.15625 2.339844-64.789062zm-246.746094-177.019532c.023437 0 .054687-.003906.09375-.003906.132813 0 .339844.03125.5625.238282.304687.28125.304687.578124.304687.6875v193.914062l-39.410156 39.414062-98.660156 98.65625c-31.589844-36.609374-48.820312-82.804687-48.820312-131.652343 0-104.71875 81.671874-193.117188 185.929687-201.253907zm16.09375 403.058594c-.046875 0-.085937.003906-.152344 0-.441406 0-.882812.019532-1.316406.0625-48.453125-.308594-94.253906-17.59375-130.558594-49.011718l131.875-131.878907 131.914063 131.914063c-36.628906 31.652344-82.863282 48.914062-131.761719 48.914062zm198.8125-166.507812c-.695313 3.925781-1.554687 8.007812-2.546875 12.109375l-.246094 1.011719c-7.605468 30.753906-22.40625 59.257812-43.113281 83.242187l-84.332031-84.328125-37.996094-37.996094 169.183594-31.328125c.113281-.023437.382812-.070312.691406.160157.351562.265624.386719.609374.398438.722656 1.976562 18.832031 1.292968 37.800781-2.039063 56.40625zm0 0"/></svg>